# xmcd
#
# Track frame offsets:
#	183
#	20908
#	69420
#	92383
#	126858
#	136358
#	144445
#	151958
#	193333
#	207745
#
# Disc length: 3448 seconds
#
# Revision: 1
# Processed by: cddbd v1.4PL0 Copyright (c) Steve Scherf et al.
# Submitted via: audiograbber 1.82.02
#
DISCID=950d760a
DTITLE=Heeresmusikkorps 300 - Premiere
DYEAR=1994
DGENRE=
TTITLE0=Flashing winds
TTITLE1=El camino real
TTITLE2=Symphonische Tänze aus >West side story<
TTITLE3=Ouvertüre zur Oper >Die Zauberflöte<
TTITLE4=Marsch nach Motiven der Oper >Die weiße Dame<
TTITLE5=Marsch nach Motiven der Oper >Die Hugenotten<
TTITLE6=Marsch nach Motiven der Oper > Indira<
TTITLE7=Sounds for winds
TTITLE8=Wind of change
TTITLE9=Latin Medley
EXTD=
EXTT0=
EXTT1=
EXTT2=
EXTT3=
EXTT4=
EXTT5=
EXTT6=
EXTT7=
EXTT8=
EXTT9=
PLAYORDER=
